<svg width="686" height="348" viewBox="0 0 686 348" fill="none" xmlns="http://www.w3.org/2000/svg">
<g clip-path="url(#clip0_2:24)">
<path fill-rule="evenodd" clip-rule="evenodd" d="M252.905 39L294.532 15.0774L336.002 39H252.905ZM227.139 53L227.488 53.6074L228.545 53H360.272L361.939 53.9616L362.493 53H391C397.075 53 402 57.9249 402 64V323C402 329.075 397.075 334 391 334H199C192.925 334 188 329.075 188 323V64C188 57.9249 192.925 53 199 53H227.139ZM224.808 39L288.554 2.36535C292.263 0.2342 296.825 0.237883 300.53 2.37505L364.02 39H391C404.807 39 416 50.1929 416 64V323C416 336.807 404.807 348 391 348H199C185.193 348 174 336.807 174 323V64C174 50.1929 185.193 39 199 39H224.808ZM132 187C132 180.925 127.075 176 121 176H25C18.9249 176 14 180.925 14 187V323C14 329.075 18.9249 334 25 334H121C127.075 334 132 329.075 132 323V187ZM25 162C11.1929 162 0 173.193 0 187V323C0 336.807 11.1929 348 25 348H121C134.807 348 146 336.807 146 323V187C146 173.193 134.807 162 121 162H114.367L80.7769 135.049C76.3914 131.531 70.1508 131.529 65.7632 135.045L32.1251 162H25ZM73.2664 146.972L91.996 162H54.5133L73.2664 146.972ZM661 117H469C462.925 117 458 121.925 458 128V320C458 326.075 462.925 331 469 331H661C667.075 331 672 326.075 672 320V128C672 121.925 667.075 117 661 117ZM469 103C455.193 103 444 114.193 444 128V320C444 333.807 455.193 345 469 345H661C674.807 345 686 333.807 686 320V128C686 114.193 674.807 103 661 103H636.013L570.903 62.2266C567.013 59.7902 562.073 59.7868 558.179 62.2179L492.856 103H469ZM519.292 103L564.533 74.7557L609.635 103H519.292Z" fill="url(#paint0_linear_2:24)"/>
</g>
<defs>
<linearGradient id="paint0_linear_2:24" x1="343" y1="0.769577" x2="343" y2="348" gradientUnits="userSpaceOnUse">
<stop stop-color="#00EFD1"/>
<stop offset="1" stop-color="#00ACEA"/>
</linearGradient>
<clipPath id="clip0_2:24">
<rect width="686" height="347.23" fill="white" transform="translate(0 0.769577)"/>
</clipPath>
</defs>
</svg>
